HIERARCHY
ROOT hips
{
	OFFSET 0.000000 104.274902 0.000000
	CHANNELS 6 Xposition Yposition Zposition Xrotation Yrotation Zrotation
	JOINT spine
	{
		OFFSET 0.000000 10.181549 0.131524
		CHANNELS 6 Xposition Yposition Zposition Xrotation Yrotation Zrotation
		JOINT chest
		{
			OFFSET 0.000000 9.893990 -1.470706
			CHANNELS 3 Xrotation Yrotation Zrotation
			JOINT upperChest
			{
				OFFSET 0.000000 9.220787 -1.370637
				CHANNELS 3 Xrotation Yrotation Zrotation
				JOINT neck
				{
					OFFSET 0.000000 16.740372 -2.049022
					CHANNELS 6 Xposition Yposition Zposition Xrotation Yrotation Zrotation
					JOINT head
					{
						OFFSET 0.000000 9.617859 1.684976
						CHANNELS 6 Xposition Yposition Zposition Xrotation Yrotation Zrotation
						JOINT headEnd
						{
							OFFSET 0.000000 22.037384 7.501072
							CHANNELS 6 Xposition Yposition Zposition Xrotation Yrotation Zrotation
							End Site
							{
								OFFSET 0.000000 23.106567 -2.828246
							}
						}
					}
				}
				JOINT rightShoulder
				{
					OFFSET -4.570000 11.014877 -2.160840
					CHANNELS 6 Xposition Yposition Zposition Xrotation Yrotation Zrotation
					JOINT rightUpperArm
					{
						OFFSET -10.592867 -0.524796 -2.232105
						CHANNELS 3 Xrotation Yrotation Zrotation
						JOINT rightLowerArm
						{
							OFFSET -27.841497 0.000000 -0.000002
							CHANNELS 3 Xrotation Yrotation Zrotation
							JOINT rightHand
							{
								OFFSET -28.328812 0.000000 -0.000001
								CHANNELS 3 Xrotation Yrotation Zrotation
								JOINT rightThumbProximal
								{
									OFFSET -2.464798 -1.573990 2.681911
									CHANNELS 6 Xposition Yposition Zposition Xrotation Yrotation Zrotation
									JOINT rightThumbIntermediate
									{
										OFFSET -3.244781 -1.873383 1.873376
										CHANNELS 3 Xrotation Yrotation Zrotation
										JOINT rightThumbDistal
										{
											OFFSET -2.646263 -1.527817 1.527818
											CHANNELS 6 Xposition Yposition Zposition Xrotation Yrotation Zrotation
											JOINT rightHandThumb4
											{
												OFFSET -1.994591 -1.151581 1.151575
												CHANNELS 6 Xposition Yposition Zposition Xrotation Yrotation Zrotation
												End Site
												{
													OFFSET -1.860176 -1.142715 1.365483
												}
											}
										}
									}
								}
								JOINT rightIndexProximal
								{
									OFFSET -9.108299 -0.517883 2.259803
									CHANNELS 6 Xposition Yposition Zposition Xrotation Yrotation Zrotation
									JOINT rightIndexIntermediate
									{
										OFFSET -3.699997 0.000000 0.000000
										CHANNELS 3 Xrotation Yrotation Zrotation
										JOINT rightIndexDistal
										{
											OFFSET -2.850006 0.000000 0.000000
											CHANNELS 3 Xrotation Yrotation Zrotation
											JOINT rightHandIndex4
											{
												OFFSET -2.772194 0.000000 0.000000
												CHANNELS 3 Xrotation Yrotation Zrotation
												End Site
												{
													OFFSET -2.772202 0.000000 -0.000484
												}
											}
										}
									}
								}
								JOINT rightMiddleProximal
								{
									OFFSET -9.532501 0.000000 -0.000000
									CHANNELS 6 Xposition Yposition Zposition Xrotation Yrotation Zrotation
									JOINT rightMiddleIntermediate
									{
										OFFSET -3.699997 0.000000 0.000000
										CHANNELS 3 Xrotation Yrotation Zrotation
										JOINT rightMiddleDistal
										{
											OFFSET -2.949997 0.000000 0.000000
											CHANNELS 3 Xrotation Yrotation Zrotation
											JOINT rightHandMiddle4
											{
												OFFSET -2.946594 0.000000 0.000000
												CHANNELS 3 Xrotation Yrotation Zrotation
												End Site
												{
													OFFSET -2.946602 0.000000 -0.000982
												}
											}
										}
									}
								}
								JOINT rightRingProximal
								{
									OFFSET -9.103600 -0.043106 -1.865100
									CHANNELS 6 Xposition Yposition Zposition Xrotation Yrotation Zrotation
									JOINT rightRingIntermediate
									{
										OFFSET -3.379303 0.000000 0.000000
										CHANNELS 3 Xrotation Yrotation Zrotation
										JOINT rightRingDistal
										{
											OFFSET -2.889694 0.000000 0.000000
											CHANNELS 3 Xrotation Yrotation Zrotation
											JOINT rightHandRing4
											{
												OFFSET -2.638802 0.000000 0.000000
												CHANNELS 3 Xrotation Yrotation Zrotation
												End Site
												{
													OFFSET -2.638802 0.000000 0.004218
												}
											}
										}
									}
								}
								JOINT rightLittleProximal
								{
									OFFSET -8.076698 -0.486725 -3.806299
									CHANNELS 6 Xposition Yposition Zposition Xrotation Yrotation Zrotation
									JOINT rightLittleIntermediate
									{
										OFFSET -3.600006 0.000000 0.000000
										CHANNELS 3 Xrotation Yrotation Zrotation
										JOINT rightLittleDistal
										{
											OFFSET -2.099998 0.000000 0.000000
											CHANNELS 3 Xrotation Yrotation Zrotation
											JOINT rightHandPinky4
											{
												OFFSET -2.115791 0.000000 0.000000
												CHANNELS 3 Xrotation Yrotation Zrotation
												End Site
												{
													OFFSET -2.115799 0.000000 0.000174
												}
											}
										}
									}
								}
							}
						}
					}
				}
				JOINT leftShoulder
				{
					OFFSET 4.570400 11.014679 -2.160816
					CHANNELS 6 Xposition Yposition Zposition Xrotation Yrotation Zrotation
					JOINT leftUpperArm
					{
						OFFSET 10.592373 -0.524597 -2.232116
						CHANNELS 3 Xrotation Yrotation Zrotation
						JOINT leftLowerArm
						{
							OFFSET 27.841488 0.000000 0.000001
							CHANNELS 3 Xrotation Yrotation Zrotation
							JOINT leftHand
							{
								OFFSET 28.328808 0.000000 -0.000000
								CHANNELS 3 Xrotation Yrotation Zrotation
								JOINT leftThumbProximal
								{
									OFFSET 2.466103 -1.576202 2.681698
									CHANNELS 6 Xposition Yposition Zposition Xrotation Yrotation Zrotation
									JOINT leftThumbIntermediate
									{
										OFFSET 3.243317 -1.872528 1.872530
										CHANNELS 3 Xrotation Yrotation Zrotation
										JOINT leftThumbDistal
										{
											OFFSET 2.647881 -1.528763 1.528754
											CHANNELS 6 Xposition Yposition Zposition Xrotation Yrotation Zrotation
											JOINT leftHandThumb4
											{
												OFFSET 1.998924 -1.154083 1.154080
												CHANNELS 6 Xposition Yposition Zposition Xrotation Yrotation Zrotation
												End Site
												{
													OFFSET 1.884041 -1.149155 1.337651
												}
											}
										}
									}
								}
								JOINT leftIndexProximal
								{
									OFFSET 9.109299 -0.518005 2.259900
									CHANNELS 6 Xposition Yposition Zposition Xrotation Yrotation Zrotation
									JOINT leftIndexIntermediate
									{
										OFFSET 3.699997 0.000000 0.000000
										CHANNELS 3 Xrotation Yrotation Zrotation
										JOINT leftIndexDistal
										{
											OFFSET 2.850006 0.000000 0.000000
											CHANNELS 3 Xrotation Yrotation Zrotation
											JOINT leftHandIndex4
											{
												OFFSET 2.774895 0.000000 0.000000
												CHANNELS 3 Xrotation Yrotation Zrotation
												End Site
												{
													OFFSET 2.774902 0.000000 -0.000072
												}
											}
										}
									}
								}
								JOINT leftMiddleProximal
								{
									OFFSET 9.533401 0.000000 0.000000
									CHANNELS 6 Xposition Yposition Zposition Xrotation Yrotation Zrotation
									JOINT leftMiddleIntermediate
									{
										OFFSET 3.699997 0.000000 0.000000
										CHANNELS 3 Xrotation Yrotation Zrotation
										JOINT leftMiddleDistal
										{
											OFFSET 2.949997 0.000000 0.000000
											CHANNELS 3 Xrotation Yrotation Zrotation
											JOINT leftHandMiddle4
											{
												OFFSET 2.952896 0.000000 0.000000
												CHANNELS 3 Xrotation Yrotation Zrotation
												End Site
												{
													OFFSET 2.952904 0.000000 0.000165
												}
											}
										}
									}
								}
								JOINT leftRingProximal
								{
									OFFSET 9.104500 -0.042999 -1.865101
									CHANNELS 6 Xposition Yposition Zposition Xrotation Yrotation Zrotation
									JOINT leftRingIntermediate
									{
										OFFSET 3.149994 0.000000 0.000000
										CHANNELS 3 Xrotation Yrotation Zrotation
										JOINT leftRingDistal
										{
											OFFSET 2.950005 0.000000 0.000000
											CHANNELS 3 Xrotation Yrotation Zrotation
											JOINT leftHandRing4
											{
												OFFSET 2.644302 0.000000 0.000000
												CHANNELS 3 Xrotation Yrotation Zrotation
												End Site
												{
													OFFSET 2.644302 0.000000 0.000083
												}
											}
										}
									}
								}
								JOINT leftLittleProximal
								{
									OFFSET 8.077805 -0.486893 -3.806302
									CHANNELS 6 Xposition Yposition Zposition Xrotation Yrotation Zrotation
									JOINT leftLittleIntermediate
									{
										OFFSET 3.600006 0.000000 0.000000
										CHANNELS 3 Xrotation Yrotation Zrotation
										JOINT leftLittleDistal
										{
											OFFSET 2.099998 0.000000 0.000000
											CHANNELS 3 Xrotation Yrotation Zrotation
											JOINT leftHandPinky4
											{
												OFFSET 2.125496 0.000000 0.000000
												CHANNELS 3 Xrotation Yrotation Zrotation
												End Site
												{
													OFFSET 2.125504 0.000000 -0.001254
												}
											}
										}
									}
								}
							}
						}
					}
				}
			}
		}
	}
	JOINT rightUpperLeg
	{
		OFFSET -8.207800 -6.751701 -1.599544
		CHANNELS 6 Xposition Yposition Zposition Xrotation Yrotation Zrotation
		JOINT rightLowerLeg
		{
			OFFSET 0.000004 -44.370152 0.345934
			CHANNELS 3 Xrotation Yrotation Zrotation
			JOINT rightFoot
			{
				OFFSET 0.000004 -44.423664 -3.043535
				CHANNELS 3 Xrotation Yrotation Zrotation
				JOINT rightToes
				{
					OFFSET 0.000001 -8.728691 10.710592
					CHANNELS 3 Xrotation Yrotation Zrotation
					JOINT rightToesEnd
					{
						OFFSET 0.000000 -0.000665 9.278101
						CHANNELS 3 Xrotation Yrotation Zrotation
						End Site
						{
							OFFSET 0.000000 -0.000665 9.278103
						}
					}
				}
			}
		}
	}
	JOINT leftUpperLeg
	{
		OFFSET 8.207800 -6.751701 -1.599544
		CHANNELS 6 Xposition Yposition Zposition Xrotation Yrotation Zrotation
		JOINT leftLowerLeg
		{
			OFFSET 0.000004 -44.370037 0.346940
			CHANNELS 3 Xrotation Yrotation Zrotation
			JOINT leftFoot
			{
				OFFSET 0.000004 -44.423611 -3.044388
				CHANNELS 3 Xrotation Yrotation Zrotation
				JOINT leftToes
				{
					OFFSET 0.000001 -8.728690 10.710592
					CHANNELS 3 Xrotation Yrotation Zrotation
					JOINT leftToesEnd
					{
						OFFSET 0.000000 -0.000680 9.278101
						CHANNELS 3 Xrotation Yrotation Zrotation
						End Site
						{
							OFFSET 0.000000 -0.000680 9.278101
						}
					}
				}
			}
		}
	}
}
MOTION
Frames: 4
Frame Time: 0.033333
11.113512 102.477943 410.913513 -172.300483 -52.581682 -175.131801 -0.000034 10.181546 0.131497 1.827105 -1.852627 0.034641 3.705404 -3.726325 1.095761 3.705405 -3.726318 1.095759 0.000008 16.740404 -2.048992 8.422134 -1.684966 10.212030 0.000010 9.617846 1.684969 -14.301503 2.928048 17.309446 -0.000009 22.037369 7.501107 0.000002 0.000001 -0.000001 -4.569999 11.014897 -2.160807 0.052026 10.572285 18.245329 -28.683605 32.736561 52.015162 -184.959651 45.444172 182.935798 21.100590 32.299770 -64.064661 -2.464801 -1.574039 2.681880 1.597833 0.343294 2.572410 1.238837 -15.612836 -9.936798 -2.646275 -1.527758 1.527818 -16.767894 29.808551 13.476213 -1.994605 -1.151570 1.151580 0.000001 -0.000001 -0.000000 -9.108297 -0.517899 2.259771 0.164229 -5.184901 4.282567 1.843407 0.346727 13.680383 6.339809 -0.228307 50.264844 0.000004 -0.000001 0.000002 -9.532500 -0.000027 -0.000031 -6.266668 -1.997579 3.989423 6.534663 -1.844882 56.162159 12.383333 0.656787 100.623870 -0.000002 -0.000001 0.000002 -9.103605 -0.043133 -1.865124 -7.138832 -3.481813 21.242247 13.666317 -2.333207 124.298556 6.356662 5.808559 21.414677 -0.000000 0.000001 0.000002 -8.076694 -0.486755 -3.806318 -11.229647 -21.953053 22.361066 15.127942 -4.312323 110.722045 11.233623 -1.374290 28.284474 -0.000001 0.000000 0.000001 4.570400 11.014717 -2.160764 1.025759 -11.980924 -3.843565 -0.447614 5.714652 -59.993178 11.768034 -11.644162 2.579988 -0.641147 -13.047615 30.418145 2.466106 -1.576218 2.681703 14.786286 3.882241 14.305606 6.726723 13.897712 9.853687 2.647901 -1.528754 1.528729 0.486134 3.197717 1.962435 1.998913 -1.154063 1.154056 0.000001 0.000001 0.000001 9.109305 -0.518032 2.259946 0.396848 6.379189 -17.649774 2.411129 1.057377 -30.361779 4.426554 -2.185363 -7.205132 -0.000001 -0.000001 0.000001 9.533421 -0.000011 -0.000010 0.676335 6.880968 -25.372927 4.999602 0.241950 -31.333056 5.774149 0.000097 -8.336208 0.000000 -0.000000 -0.000000 9.104508 -0.043029 -1.865075 1.079683 8.495744 -31.902284 6.819043 1.391314 -40.065237 5.836549 -0.038876 -12.735823 -0.000001 -0.000000 0.000001 8.077814 -0.486914 -3.806293 -4.087963 12.480729 -34.743758 9.238751 2.679939 -38.243073 9.831965 4.670790 -8.744920 0.000001 -0.000000 0.000001 -8.207812 -6.751703 -1.599588 -15.726555 1.082411 -3.414539 32.230379 -2.104885 -0.175245 -2.348330 0.357240 -1.100967 -2.166760 -0.114462 2.701433 -0.000000 0.000001 0.000000 8.207802 -6.751704 -1.599583 -3.250258 11.908865 1.576930 22.723544 54.661283 4.104407 -2.200892 3.993914 -16.051225 -6.448874 3.096499 -0.231617 -0.000000 0.000002 0.000000 
11.106874 102.890785 410.084564 -174.075581 -47.643127 -177.710266 -0.000043 10.181553 0.131555 1.741059 -1.980083 0.154904 3.530512 -3.944053 1.141464 3.530511 -3.944050 1.141462 0.000026 16.740355 -2.049021 8.104224 -1.748256 10.232442 -0.000021 9.617840 1.684979 -13.842633 2.874014 17.660564 0.000026 22.037384 7.501045 0.000003 -0.000001 -0.000001 -4.569966 11.014874 -2.160830 0.056410 10.424023 18.369965 -28.621052 32.913555 52.186040 -185.327621 45.358873 183.273086 21.104168 32.086955 -64.378406 -2.464805 -1.573963 2.681880 1.597830 0.343284 2.572409 1.238829 -15.612834 -9.936797 -2.646290 -1.527811 1.527818 -16.767884 29.808547 13.476211 -1.994646 -1.151630 1.151640 -0.000000 0.000007 -0.000002 -9.108296 -0.517869 2.259797 0.164230 -5.184903 4.282566 1.843407 0.346730 13.680382 6.339808 -0.228310 50.264848 -0.000006 0.000004 0.000002 -9.532503 -0.000011 -0.000012 -6.266667 -1.997587 3.989421 6.534665 -1.844883 56.162159 12.383331 0.656789 100.623870 0.000001 -0.000001 0.000001 -9.103613 -0.043101 -1.865125 -7.138831 -3.481813 21.242242 13.666320 -2.333205 124.298556 6.356660 5.808564 21.414672 -0.000002 -0.000003 0.000001 -8.076694 -0.486698 -3.806331 -11.229648 -21.953054 22.361064 15.127944 -4.312323 110.722038 11.233627 -1.374285 28.284478 0.000002 0.000001 0.000003 4.570438 11.014668 -2.160818 1.015669 -11.719331 -3.778365 -0.628205 3.896494 -60.922542 12.654953 -12.703696 2.996718 -0.498642 -14.468111 29.606811 2.466101 -1.576218 2.681737 14.789330 3.825864 14.293452 6.715506 13.848959 9.843223 2.647877 -1.528730 1.528786 0.499641 3.216815 1.955815 1.998902 -1.154085 1.154065 -0.000002 0.000003 -0.000000 9.109305 -0.518011 2.259918 0.344161 6.203784 -15.701633 2.324975 0.902160 -28.418582 4.409067 -2.363137 -5.263742 0.000000 0.000000 -0.000000 9.533415 -0.000001 0.000034 0.602160 6.718384 -23.397288 4.912836 0.089530 -29.391209 5.754112 -0.174065 -6.391612 -0.000000 -0.000001 -0.000000 9.104506 -0.042997 -1.865061 0.995285 8.354775 -29.898702 6.710874 1.254352 -38.119375 5.803482 -0.209583 -10.791917 0.000000 0.000000 0.000000 8.077816 -0.486897 -3.806272 -4.182459 12.345584 -32.699230 9.135490 2.539848 -36.295434 9.812128 4.497427 -6.798797 0.000000 -0.000000 -0.000002 -8.207854 -6.751716 -1.599522 -16.196405 -0.503791 -2.397445 27.476227 -2.722642 -0.202345 -2.781229 0.184818 0.851748 -0.265126 -0.033434 -0.337119 0.000000 -0.000002 -0.000000 8.207731 -6.751700 -1.599521 -3.094371 11.897346 2.379378 21.731642 55.027948 4.157043 0.432379 7.328443 -17.070523 -7.820421 3.689776 -0.157774 0.000000 0.000000 0.000000 
11.074410 103.222939 408.959564 -175.480523 -43.026869 -179.703520 -0.000008 10.181551 0.131519 1.622482 -2.106003 0.269945 3.287928 -4.174271 1.144062 3.287930 -4.174288 1.144062 0.000003 16.740395 -2.049024 7.741848 -1.779725 10.185952 0.000015 9.617817 1.685030 -13.410272 2.946027 17.914878 0.000004 22.037369 7.501091 0.000001 -0.000001 0.000000 -4.569990 11.014879 -2.160836 0.047782 10.431627 18.485521 -28.639816 33.081594 52.231000 -185.453160 45.324295 183.434047 21.104265 31.922334 -64.589315 -2.464798 -1.574012 2.681877 1.597833 0.343289 2.572406 1.238832 -15.612831 -9.936800 -2.646250 -1.527803 1.527818 -16.767884 29.808547 13.476208 -1.994643 -1.151567 1.151605 0.000002 -0.000004 -0.000004 -9.108303 -0.517927 2.259802 0.164230 -5.184899 4.282566 1.843409 0.346730 13.680384 6.339808 -0.228307 50.264848 -0.000004 -0.000002 -0.000001 -9.532487 -0.000042 -0.000027 -6.266666 -1.997588 3.989420 6.534668 -1.844882 56.162159 12.383328 0.656789 100.623870 -0.000001 0.000001 0.000000 -9.103590 -0.043161 -1.865120 -7.138828 -3.481813 21.242240 13.666323 -2.333206 124.298556 6.356658 5.808562 21.414673 -0.000001 0.000002 0.000002 -8.076691 -0.486759 -3.806333 -11.229643 -21.953054 22.361066 15.127937 -4.312326 110.722038 11.233624 -1.374286 28.284478 0.000001 0.000002 0.000002 4.570414 11.014684 -2.160839 1.003770 -11.529032 -3.774223 -0.474179 2.336282 -61.867840 12.512728 -15.309586 3.499924 -0.591910 -15.402678 28.181019 2.466109 -1.576223 2.681738 14.796234 3.807292 14.297689 6.710006 13.821784 9.837372 2.647895 -1.528745 1.528661 0.502170 3.208334 1.943223 1.998922 -1.154082 1.154138 0.000002 0.000003 -0.000002 9.109306 -0.518018 2.259935 0.315026 6.095835 -14.526439 2.276209 0.806822 -27.250483 4.402663 -2.471093 -4.094593 -0.000000 -0.000000 -0.000000 9.533423 0.000001 0.000053 0.559267 6.617030 -22.179865 4.863789 -0.005068 -28.213590 5.746313 -0.280297 -5.211365 -0.000001 -0.000000 -0.000000 9.104514 -0.042991 -1.865079 0.946974 8.268568 -28.648928 6.648932 1.168893 -36.938626 5.787809 -0.313709 -9.615484 0.000001 0.000001 0.000003 8.077812 -0.486892 -3.806228 -4.240079 12.269812 -31.444681 9.076953 2.452940 -35.110311 9.805529 4.392939 -5.619948 -0.000000 -0.000000 0.000000 -8.207825 -6.751706 -1.599547 -16.253176 -2.204151 -1.018046 21.802990 -6.415456 -0.424246 -3.299423 0.009982 1.746268 -0.343826 -0.013402 -0.052758 0.000000 -0.000004 -0.000000 8.207797 -6.751702 -1.599555 -2.849524 11.972744 3.161671 20.927667 54.757002 4.129497 3.047786 10.842923 -18.363358 -9.088661 4.594450 -0.199393 -0.000000 0.000000 0.000000 
10.996243 103.428444 407.478668 -176.430425 -38.853705 -181.054586 -0.000002 10.181524 0.131478 1.477892 -2.218540 0.341635 2.992533 -4.397458 1.092672 2.992531 -4.397449 1.092669 -0.000001 16.740370 -2.049048 7.393578 -1.791217 10.046570 0.000002 9.617883 1.684992 -13.064993 3.046097 18.069110 -0.000000 22.037369 7.501074 0.000000 0.000001 0.000002 -4.569996 11.014889 -2.160833 0.044395 10.408871 18.554303 -28.740702 33.299556 52.280146 -185.377468 45.355137 183.429566 21.101697 31.843916 -64.633568 -2.464803 -1.574012 2.681905 1.597831 0.343289 2.572408 1.238834 -15.612834 -9.936797 -2.646232 -1.527783 1.527835 -16.767882 29.808551 13.476211 -1.994583 -1.151598 1.151547 0.000001 -0.000005 -0.000000 -9.108294 -0.517850 2.259774 0.164231 -5.184900 4.282568 1.843403 0.346729 13.680385 6.339804 -0.228309 50.264844 0.000000 0.000002 -0.000002 -9.532497 -0.000041 0.000009 -6.266670 -1.997582 3.989425 6.534662 -1.844884 56.162159 12.383326 0.656790 100.623870 -0.000003 0.000002 0.000001 -9.103590 -0.043133 -1.865096 -7.138830 -3.481810 21.242245 13.666316 -2.333207 124.298556 6.356662 5.808560 21.414673 0.000005 0.000002 0.000002 -8.076693 -0.486740 -3.806299 -11.229645 -21.953048 22.361066 15.127940 -4.312325 110.722045 11.233625 -1.374287 28.284481 -0.000004 -0.000001 0.000003 4.570403 11.014691 -2.160840 0.988446 -11.347291 -3.816465 -0.070789 1.001484 -62.965841 11.765667 -19.220127 4.010793 -0.962871 -15.706985 26.120411 2.466119 -1.576194 2.681743 14.807642 3.917405 14.347984 6.726414 13.884167 9.850763 2.647913 -1.528748 1.528729 0.469680 3.123541 1.922533 1.998899 -1.154092 1.154056 0.000002 0.000005 -0.000002 9.109314 -0.518015 2.259930 0.300001 6.036236 -13.838776 2.249589 0.750376 -26.575122 4.401592 -2.534778 -3.415088 -0.000000 -0.000003 -0.000000 9.533422 0.000004 0.000031 0.534029 6.554440 -21.433089 4.836883 -0.062977 -27.510860 5.744720 -0.343826 -4.508947 -0.000000 -0.000000 0.000000 9.104518 -0.043000 -1.865065 0.911570 8.204762 -27.877289 6.614756 1.116656 -36.234345 5.781615 -0.375614 -8.921290 0.000001 0.000001 -0.000000 8.077835 -0.486889 -3.806248 -4.287064 12.226559 -30.768322 9.045149 2.400054 -34.395962 9.806007 4.332287 -4.922091 -0.000001 0.000001 0.000002 -8.207798 -6.751735 -1.599608 -15.793884 -3.616544 0.523709 16.151738 -11.758013 -0.765292 -3.711213 -0.144994 1.880612 -0.270075 0.025384 0.148861 -0.000000 0.000000 0.000000 8.207803 -6.751729 -1.599612 -2.248095 12.134079 3.827037 20.262055 54.506726 4.100105 5.448778 13.662684 -19.925094 -10.160573 5.634135 -0.360772 -0.000000 -0.000002 0.000000 
